# xmcd
#
# Track frame offsets:
#	150
#	20080
#	48155
#	68212
#	92760
#	110712
#	130670
#	153430
#	171910
#	192550
#	210010
#	229297
#	249960
#	270850
#	300779
#
# Disc length: 4449 seconds
#
# Revision: 19
# Processed by: cddbd v1.5.2PL0 Copyright (c) Steve Scherf et al.
# Submitted via: EasyCDDAExtractor 15.3.0.1
#
DISCID=bd115f0f
DTITLE=Jennifer Lopez - On The 6
DYEAR=1999
DGENRE=Pop
TTITLE0=If You Had My Love
TTITLE1=Should've Never
TTITLE2=Too Late
TTITLE3=Feelin' So Good (Featuring Big Pun and Fat Joe)
TTITLE4=Let's Get Loud
TTITLE5=Could This Be Love
TTITLE6=No Me Ames (Duet With Marc Anthony) (Tropical Remix)
TTITLE7=Waiting For Tonight
TTITLE8=Open Off My Love
TTITLE9=Promise Me You'll Try
TTITLE10=It's Not That Serious
TTITLE11=Talk About Us
TTITLE12=No Me Ames (Duet With Marc Anthony) (Ballad Version)
TTITLE13=Una Noche Mas
TTITLE14=Data
EXTD=YEAR: 1999
EXTT0=
EXTT1=
EXTT2=
EXTT3=
EXTT4=
EXTT5=
EXTT6=
EXTT7=
EXTT8=
EXTT9=
EXTT10=
EXTT11=
EXTT12=
EXTT13=
EXTT14=
PLAYORDER=
